<svg width="24" height="24" viewBox="0 0 24 24" fill="none" xmlns="http://www.w3.org/2000/svg">
<path d="M19.7109 3.36357L2.24269 8.2905C2.09574 8.33195 1.96493 8.41727 1.86776 8.53505C1.77059 8.65283 1.71169 8.79746 1.69892 8.94961C1.68615 9.10177 1.72012 9.2542 1.7963 9.38653C1.87248 9.51885 1.98723 9.62478 2.12523 9.69014L10.1512 13.4919C10.3078 13.5661 10.4338 13.6921 10.508 13.8487L14.3098 21.8747C14.3751 22.0127 14.4811 22.1274 14.6134 22.2036C14.7457 22.2798 14.8981 22.3138 15.0503 22.301C15.2025 22.2882 15.3471 22.2293 15.4649 22.1322C15.5826 22.035 15.668 21.9042 15.7094 21.7572L20.6363 4.289C20.6725 4.16068 20.6739 4.02504 20.6402 3.89604C20.6066 3.76704 20.5391 3.64934 20.4448 3.55507C20.3506 3.4608 20.2329 3.39336 20.1039 3.3597C19.9749 3.32604 19.8392 3.32737 19.7109 3.36357Z" stroke="#030E01" stroke-width="2" stroke-linecap="round" stroke-linejoin="round"/>
<path d="M10.3936 13.6066L14.6362 9.36395" stroke="black" stroke-width="2" stroke-linecap="round" stroke-linejoin="round"/>
</svg>
